<svg width="79" height="80" viewBox="0 0 79 80" fill="none" xmlns="http://www.w3.org/2000/svg"><path d="M0 40C0 18.183 17.685.5 39.5.5S79 18.184 79 40c0 21.815-17.685 39.5-39.5 39.5S0 61.814 0 40z" fill="#000"/><g clip-path="url(#clip0)"><path d="M45.426 50.27a1.04 1.04 0 00.453-.562c.237-.636.13-1.524-.348-1.883-2.972-2.236-6.005-4.298-9.003-6.456-.365-.263-.728-.526-1.09-.793 3.329-2.539 6.728-4.89 10.03-7.498.838-.663.46-2.75-.49-2.567-2.961.573-3.516 1.496-9.306 4.542-.525.277-2.623 1.784-3.063 2.277-.386.432-.792.862-1.142 1.353-.557.78-.618 1.97-.16 2.87.316.624 1.785 1.676 2.245 2.075 1.767 1.529 3.857 2.813 4.951 3.452 2.17 1.273 3.962 2.144 6.15 3.354.251.138.54.049.773-.165z" fill="#fff"/></g><defs><clipPath id="clip0"><path fill="#fff" transform="rotate(-90 40.75 9.75)" d="M0 0h20v15H0z"/></clipPath></defs></svg>