<svg width="36" height="25" viewBox="0 0 36 25" fill="none" xmlns="http://www.w3.org/2000/svg"><path d="M4.89 10.563c0 .553-.187 1.01-.562 1.367-.302.283-.766.424-1.39.424h-.266V8.773h.265c.636 0 1.1.146 1.391.44.375.336.563.786.563 1.35zm27.75-1.058c0 .564-.333.847-1 .847h-.296V8.708h.312c.657 0 .985.266.985.797zM5.938 10.563c0-.803-.26-1.457-.78-1.961-.522-.505-1.193-.757-2.016-.757H1.656v5.42h1.485c.77 0 1.39-.206 1.859-.619a2.666 2.666 0 00.938-2.083zm.47 2.702h1.015v-5.42H6.406v5.42zm5-1.644c0-.434-.107-.77-.321-1.009-.214-.239-.607-.467-1.18-.684-.302-.108-.508-.211-.617-.309a.48.48 0 01-.164-.374c0-.174.07-.318.21-.432a.839.839 0 01.54-.17c.302 0 .578.146.828.439l.531-.716a2.158 2.158 0 00-1.53-.602c-.46 0-.845.149-1.157.447a1.46 1.46 0 00-.469 1.099c0 .38.094.68.281.903.188.223.521.42 1 .594.386.141.62.244.704.31.197.13.296.314.296.553a.742.742 0 01-.218.545.76.76 0 01-.563.22c-.5 0-.87-.239-1.11-.716l-.655.65c.458.695 1.057 1.043 1.796 1.043.532 0 .964-.166 1.297-.497.334-.33.5-.762.5-1.294zm4.343 1.465v-1.253c-.385.401-.792.602-1.219.602-.51 0-.93-.176-1.258-.53-.328-.352-.492-.8-.492-1.342 0-.52.164-.963.492-1.326a1.568 1.568 0 011.211-.546c.448 0 .87.207 1.266.619V8.057a2.685 2.685 0 00-1.25-.326 2.64 2.64 0 00-1.96.822c-.537.548-.806 1.218-.806 2.01 0 .792.266 1.462.797 2.01a2.615 2.615 0 001.953.822c.438 0 .86-.103 1.266-.31zM35 22.916V14.34c-.677.434-1.43.89-2.258 1.367-.828.478-2.065 1.113-3.71 1.905a74.655 74.655 0 01-5.15 2.238c-1.786.7-3.96 1.43-6.523 2.189-2.562.76-5.187 1.4-7.875 1.92H34c.27 0 .505-.103.703-.309a1.02 1.02 0 00.297-.732zm-13.297-12.32c0-.814-.276-1.509-.828-2.084-.552-.575-1.219-.862-2-.862-.781 0-1.448.287-2 .862s-.828 1.27-.828 2.084c0 .813.276 1.508.828 2.083.552.575 1.219.863 2 .863.781 0 1.448-.288 2-.863s.828-1.27.828-2.083zm2.375 2.816l2.25-5.567h-1.11l-1.405 3.646-1.391-3.646h-1.11l2.22 5.567h.546zm2.703-.147h2.875v-.912h-1.86V10.89h1.798v-.912h-1.797V8.773h1.86v-.928H26.78v5.42zm6.11 0h1.25L32.5 10.986c.792-.173 1.188-.683 1.188-1.53 0-.51-.162-.906-.485-1.188-.323-.282-.776-.423-1.36-.423h-1.515v5.42h1.016V11.1h.14l1.407 2.165zM36 2.181v20.638c0 .608-.2 1.123-.602 1.546a1.938 1.938 0 01-1.46.635H2.061c-.572 0-1.06-.212-1.46-.635C.2 23.942 0 23.427 0 22.82V2.181C0 1.573.2 1.058.602.635A1.938 1.938 0 012.062 0h31.875c.573 0 1.06.212 1.461.635.401.423.602.938.602 1.546z" fill="#000"/></svg>