<svg width="36" height="25" viewBox="0 0 36 25" fill="none" xmlns="http://www.w3.org/2000/svg"><path d="M17.484 3.467c-1.333-.923-2.797-1.384-4.39-1.384a7.48 7.48 0 00-3.086.66 7.994 7.994 0 00-2.54 1.765 8.394 8.394 0 00-1.695 2.637 8.308 8.308 0 00-.632 3.207c0 1.128.21 2.202.632 3.222a8.393 8.393 0 001.696 2.637A8.018 8.018 0 0010 17.977c.98.44 2.01.66 3.094.66 1.594 0 3.057-.462 4.39-1.384a8.674 8.674 0 01-2.78-4.322 9.17 9.17 0 01.007-5.151 8.767 8.767 0 012.773-4.313zm.516.39a8.067 8.067 0 00-2.688 4.061 8.544 8.544 0 00-.007 4.891A7.982 7.982 0 0018 16.862a7.982 7.982 0 002.695-4.053 8.544 8.544 0 00-.008-4.89A8.067 8.067 0 0018 3.856zm.516-.39a8.766 8.766 0 012.773 4.321c.495 1.72.497 3.44.008 5.16a8.582 8.582 0 01-2.781 4.305c1.333.922 2.797 1.383 4.39 1.383 1.084 0 2.115-.22 3.094-.66a8.017 8.017 0 002.531-1.765 8.392 8.392 0 001.696-2.637 8.35 8.35 0 00.632-3.222 8.309 8.309 0 00-.632-3.207 8.394 8.394 0 00-1.696-2.637 7.993 7.993 0 00-2.539-1.765 7.489 7.489 0 00-3.086-.66c-1.593 0-3.057.461-4.39 1.384zm11.578 11.751h.11v-.049h-.267v.05h.11v.276h.047v-.277zm.453.277h.062v-.326h-.078l-.093.212-.094-.212h-.078v.326h.047v-.244l.093.211h.063l.078-.211v.244zm-.125 7.161v.033h-.078v-.049h.078v.016zm0 .147h.047l-.063-.082h.032l.015-.016c.01-.01.016-.027.016-.049a.072.072 0 00-.016-.049l-.015-.016h-.141v.212h.047v-.082h.015l.063.082zm-19.719-1.107c0-.206.057-.374.172-.505a.592.592 0 01.469-.195c.187 0 .338.068.453.204a.744.744 0 01.172.496.736.736 0 01-.172.505.574.574 0 01-.453.195.592.592 0 01-.469-.195.736.736 0 01-.172-.505zm7.39-.716c.313 0 .495.173.548.52h-1.094c.052-.347.234-.52.547-.52zm5.563.716c0-.206.058-.374.172-.505a.574.574 0 01.453-.195c.188 0 .341.068.461.204.12.135.18.3.18.496a.736.736 0 01-.172.505.592.592 0 01-.469.195.574.574 0 01-.453-.195.736.736 0 01-.172-.505zm4.25 0c0-.195.06-.36.18-.497a.587.587 0 01.46-.203c.188 0 .342.068.462.204.12.135.18.3.18.496 0 .206-.06.374-.18.505a.598.598 0 01-.461.195.587.587 0 01-.461-.204.723.723 0 01-.18-.496zm2.469 1.172a.135.135 0 01-.063-.016c-.01 0-.026-.011-.046-.033-.021-.022-.032-.038-.032-.049a.15.15 0 01-.015-.065c0-.032.005-.054.015-.065 0-.022.01-.043.032-.065l.015-.016c.021 0 .032-.006.032-.017a.135.135 0 01.062-.016c.031 0 .052.006.063.016l.062.033.031.065v.016c.01.022.016.038.016.05l-.016.015v.05l-.015.015-.016.033c-.02.022-.042.033-.063.033-.01.01-.03.016-.062.016zm-21.016-.065h.47v-1.384c0-.26-.076-.469-.227-.626-.151-.158-.357-.242-.618-.253-.333 0-.578.13-.734.391-.146-.26-.38-.39-.703-.39a.72.72 0 00-.61.325v-.26H6.47v2.197h.468v-1.221c0-.39.172-.586.516-.586.313 0 .469.195.469.586v1.22h.453v-1.22c0-.39.172-.586.516-.586.312 0 .468.195.468.586v1.22zm2.594 0h.453v-2.198h-.453v.26a.83.83 0 00-.672-.325.972.972 0 00-.75.326c-.198.217-.297.494-.297.83 0 .336.1.613.297.83a.971.971 0 00.75.326c.292 0 .516-.109.672-.326v.277zm2.781-.668c0-.369-.244-.586-.734-.65l-.219-.033c-.24-.044-.36-.12-.36-.228 0-.163.131-.244.392-.244.24 0 .463.06.671.179l.188-.39c-.23-.153-.516-.229-.86-.229-.27 0-.484.066-.64.196a.643.643 0 00-.235.52c0 .359.245.57.735.635l.203.033c.25.043.375.12.375.228 0 .184-.162.276-.484.276-.26 0-.495-.076-.704-.227l-.203.374c.26.184.563.277.907.277.302 0 .539-.066.71-.196a.62.62 0 00.258-.52zm2.032.554l-.125-.407a.823.823 0 01-.407.114c-.198 0-.297-.12-.297-.358v-.993h.75v-.44h-.75v-.667h-.468v.668h-.438v.439h.438v.993c0 .542.245.814.734.814a.961.961 0 00.563-.163zm1.343-2.149a.971.971 0 00-.75.326c-.198.217-.297.494-.297.83 0 .347.102.627.305.838.203.212.461.318.774.318.343 0 .63-.104.859-.31l-.219-.358a.912.912 0 01-.61.244c-.353 0-.567-.179-.64-.537h1.578v-.195c0-.347-.093-.627-.28-.838a.918.918 0 00-.72-.318zm2.485 0a.597.597 0 00-.547.326v-.26h-.469v2.197h.469v-1.237c0-.38.15-.57.453-.57a.6.6 0 01.281.065l.14-.456a.774.774 0 00-.327-.065zm.468 1.156c0 .336.102.613.305.83.203.217.477.326.82.326.303 0 .553-.087.75-.26l-.218-.391c-.188.14-.37.206-.547.195a.598.598 0 01-.461-.195.716.716 0 01-.18-.505c0-.206.06-.374.18-.505a.598.598 0 01.46-.195.87.87 0 01.548.195l.218-.39a1.133 1.133 0 00-.75-.26c-.343 0-.617.108-.82.325-.203.217-.305.494-.305.83zm3.829 1.107h.468v-2.198h-.468v.26a.762.762 0 00-.657-.325.996.996 0 00-.757.326c-.204.217-.305.494-.305.83 0 .336.101.613.305.83a.995.995 0 00.757.326c.292 0 .51-.109.657-.326v.277zm2.078-2.263a.597.597 0 00-.547.326v-.26h-.453v2.197h.453v-1.237c0-.38.15-.57.453-.57a.6.6 0 01.281.065l.14-.456a.711.711 0 00-.327-.065zm2.187 2.263h.453V19.71h-.453v1.156c-.156-.217-.38-.326-.672-.326a.968.968 0 00-.742.334 1.174 1.174 0 00-.305.822c0 .325.102.6.305.822.203.222.45.334.742.334.302 0 .526-.109.672-.326v.277zm1.219-.326l-.031.017h-.047a.243.243 0 00-.063.048c-.03.011-.047.033-.047.065a.236.236 0 00-.015.098c0 .033.005.06.015.082 0 .021.016.043.047.065a.24.24 0 00.063.048c.02.011.047.017.078.017a.21.21 0 00.094-.017c0-.01.01-.021.031-.032l.031-.016a.48.48 0 00.047-.066.188.188 0 00.016-.08.235.235 0 00-.016-.099.484.484 0 01-.047-.065c0-.01-.01-.021-.031-.032l-.031-.017a.206.206 0 01-.047-.008.203.203 0 00-.047-.008zM36 2.083v20.834c0 .564-.198 1.052-.594 1.464-.396.413-.864.619-1.406.619H2c-.542 0-1.01-.206-1.406-.619A2.044 2.044 0 010 22.918V2.083C0 1.52.198 1.031.594.618.99.206 1.458 0 2 0h32c.542 0 1.01.206 1.406.618.396.413.594.901.594 1.465z" fill="#000"/></svg>