<?xml version="1.0" encoding="UTF-8"?> <svg xmlns="http://www.w3.org/2000/svg" width="200" height="200" viewBox="0 0 200 200" fill="none"><g clip-path="url(#clip0)"><path d="M96.4986 119.072L98.8786 118.792L98.8786 82.8123C98.8786 75.9523 100.419 72.9423 103.989 67.7623L103.989 67.6223L91.6686 67.6223L91.6686 67.7623C95.3786 73.0123 96.7786 75.8823 96.8486 82.9523L96.9886 100.172L71.0886 67.6223L55.4786 67.6223L55.4786 67.7623C58.7686 71.5423 60.2386 73.9223 60.5886 78.8223L60.5886 103.672C60.5886 110.672 59.1186 113.542 55.4086 118.722L55.4086 118.862L68.0086 118.862L68.0086 118.722C64.2286 113.542 62.6886 110.532 62.6886 103.672L62.4086 76.5123L96.4986 119.072ZM124.579 119.912C134.869 119.912 143.409 111.582 143.409 101.852C143.409 92.1223 134.869 83.6523 124.579 83.6523C114.289 83.6523 105.749 92.1223 105.749 101.852C105.749 111.582 114.289 119.912 124.579 119.912ZM124.579 118.582C119.609 118.582 117.369 111.792 117.369 101.852C117.369 91.9123 119.539 84.9823 124.579 84.9823C129.549 84.9823 131.789 91.9123 131.789 101.852C131.789 111.792 129.549 118.582 124.579 118.582Z" fill="white"></path></g><defs><clipPath id="clip0"><rect width="200" height="200" fill="white"></rect></clipPath></defs></svg> 