<?xml version="1.0" encoding="UTF-8"?> <svg xmlns="http://www.w3.org/2000/svg" width="200" height="200" viewBox="0 0 200 200" fill="none"><path d="M111.728 149.618C107.39 149.618 92.6045 148.452 91.4593 148.027C91.3893 147.757 91.3151 147.488 91.241 147.214C91.241 147.214 90.5983 144.911 90.4706 144.444L90.0215 142.802C89.7579 141.83 89.486 140.82 89.2059 139.834C89.0287 139.211 88.8351 138.584 88.6456 137.974C88.5509 137.662 88.279 136.787 88.279 136.787C88.1677 136.42 88.0565 136.054 87.9576 135.692C87.7846 135.056 87.6157 134.421 87.4468 133.785C87.1213 132.564 86.7835 131.305 86.4251 130.072C86.0544 128.796 85.7248 127.483 85.4035 126.216C85.2099 125.45 85.0121 124.658 84.8061 123.879C84.6331 123.227 84.4271 122.579 84.2294 121.951C84.1017 121.556 83.9781 121.16 83.8586 120.76C83.0182 117.935 82.3138 115.001 81.7576 112.033C81.4528 110.395 81.2839 108.893 81.2427 107.428C81.218 106.569 81.2015 105.706 81.185 104.847L81.1809 104.691C81.1603 103.622 81.1356 102.532 81.1067 101.462C81.0491 99.4206 80.979 97.5935 80.8966 95.8717C80.8678 95.2824 80.8142 94.6846 80.7648 94.1036C80.7277 93.6827 80.6906 93.2869 80.6618 92.8912C80.6206 92.264 80.5877 91.6283 80.5547 91.0137L80.4517 89.1487C80.3899 88.0921 80.3322 87.0186 80.2952 85.9661C80.2169 83.7644 80.1716 81.8237 80.1469 80.0388C80.1304 78.6622 80.1427 77.1677 80.1881 75.467C80.2087 74.625 80.254 73.7704 80.2993 72.9411C80.324 72.478 80.3487 72.0191 80.3693 71.5561C80.3817 71.3077 80.3858 71.0593 80.394 70.8109C80.4023 70.4826 80.4105 70.2047 80.4229 69.9269C80.4311 69.7375 80.4517 69.5438 80.4682 69.3586C80.4805 69.2154 80.497 69.0723 80.5053 68.9334C80.5547 68.2304 80.6041 67.5231 80.6536 66.8201C80.7154 65.9108 80.8719 65.1909 81.1438 64.5552C81.3827 63.9953 81.6629 63.688 82.0419 63.5575C82.3303 63.4607 82.6021 63.4102 82.8493 63.4102C83.2407 63.4102 83.5991 63.5365 83.9081 63.7848C84.526 64.2816 84.9256 64.9594 85.0904 65.8013L85.2016 66.3486C85.3046 66.8327 85.4035 67.3126 85.4611 67.7883C85.5765 68.786 85.6383 69.6701 85.6548 70.491C85.6671 71.2361 85.7495 71.9771 85.8278 72.6885C85.8566 72.9411 85.8855 73.1937 85.9102 73.4505C85.9555 73.9009 85.9926 74.3472 86.0297 74.7976C86.0791 75.387 86.1326 75.9974 86.1986 76.5952C86.2974 77.5129 86.4169 78.4391 86.5322 79.3357L86.7011 80.6787C86.8 81.4533 86.8989 82.2531 87.0101 83.0361C87.1543 84.0507 87.3191 85.1284 87.5292 86.4334C87.5498 86.5723 87.5374 86.6608 87.4756 86.7786C87.076 87.5532 86.8289 88.3826 86.7382 89.254C86.6311 90.2685 86.627 91.3294 86.7135 92.4955L86.7547 93.0849C86.8 93.7332 86.8495 94.4067 86.9401 95.0677C87.0513 95.8675 87.1831 96.6758 87.315 97.4588C87.4344 98.1871 87.5457 98.8733 87.6445 99.5553C87.8629 101.058 88.2007 102.553 88.5261 104.001C88.6497 104.544 88.7692 105.079 88.8845 105.613C89.1152 106.682 89.3212 107.545 89.5396 108.32C89.6631 108.754 89.8279 109.17 89.9927 109.575C90.0504 109.713 90.1081 109.857 90.1616 109.996C90.45 110.741 90.8208 111.608 91.3851 112.391C92.0237 113.275 92.8476 113.822 93.8322 114.007C94.0382 114.045 94.2483 114.066 94.4542 114.066C94.961 114.066 95.4677 113.953 95.9538 113.725C96.4934 113.473 97.0166 113.178 97.5192 112.888C97.6181 112.829 97.6593 112.825 97.684 112.825C97.7087 112.825 97.7417 112.833 97.7788 112.854C98.2072 113.077 98.7016 113.216 99.336 113.292C99.4884 113.309 99.6408 113.317 99.7891 113.317C100.667 113.317 101.495 113.01 102.323 112.378C103.283 111.646 103.888 110.665 104.185 109.381C104.251 109.09 104.321 108.8 104.395 108.509C104.49 108.118 104.572 107.79 104.646 107.461C104.663 107.398 104.675 107.335 104.683 107.268C104.803 107.444 104.922 107.617 105.046 107.794C105.293 108.152 105.54 108.509 105.771 108.867C106.179 109.503 106.496 110.118 106.739 110.745C106.957 111.305 107.291 111.789 107.616 112.231C107.719 112.366 107.814 112.509 107.913 112.648C108.189 113.048 108.469 113.452 108.848 113.784C108.881 113.822 108.906 113.847 108.935 113.864C108.935 113.864 110.175 114.837 110.603 115.169C110.71 115.249 110.826 115.329 110.966 115.35C111.003 115.359 111.044 115.359 111.089 115.359C111.2 115.359 111.357 115.334 111.468 115.224C111.555 115.14 111.596 115.03 111.592 114.917C111.588 114.782 111.514 114.652 111.386 114.542L111.027 114.235C110.706 113.961 110.377 113.679 110.043 113.418C109.693 113.144 109.33 112.837 109.062 112.446L108.758 112.004C108.473 111.587 108.21 111.208 107.962 110.829C107.888 110.72 107.835 110.598 107.777 110.467C107.74 110.391 107.707 110.315 107.67 110.24L107.431 109.76C107.2 109.288 106.97 108.817 106.714 108.387C106.541 108.093 106.331 107.806 106.15 107.554C105.997 107.343 105.841 107.124 105.701 106.901C105.363 106.367 105.042 105.853 104.803 105.318C104.238 104.051 103.311 103.18 101.96 102.649C100.382 102.031 98.7098 101.349 97.1691 100.397C96.6253 100.06 96.2092 99.7616 95.8549 99.4458C94.4996 98.2376 93.4326 97.0042 92.5881 95.6697C92.275 95.1729 92.0319 94.6172 91.8548 93.9773C91.7518 93.6069 91.7683 93.1985 91.9124 92.6976C92.0608 92.1798 92.3079 91.683 92.6869 91.1526L92.7899 91.2368C93.0083 91.3883 93.2142 91.5315 93.412 91.6914C94.446 92.5418 95.616 93.2154 96.6459 93.8132C97.1773 94.1205 97.7746 94.4152 98.4132 94.6888C98.6686 94.7982 98.9323 94.8572 99.1918 94.9119C99.3154 94.9414 99.439 94.9666 99.5584 95.0003C99.6161 95.0172 99.6779 95.0256 99.7356 95.0256C99.9745 95.0256 100.172 94.874 100.242 94.6299C100.444 93.9479 100.634 93.2659 100.811 92.6302C100.84 92.525 100.86 92.4239 100.881 92.3145C101.606 92.5123 102.347 92.6428 103.097 92.6976C103.554 92.7312 104.568 92.8112 104.568 92.8112C105.165 92.8575 105.775 92.9081 106.38 92.9459C107.25 93.0049 107.983 93.3417 108.63 93.9773C109.334 94.672 109.969 95.4971 110.57 96.5074C110.727 96.7726 110.883 97.0421 111.04 97.3115C111.332 97.8209 111.604 98.2882 111.884 98.7428C112.267 99.3532 112.667 99.9342 113.071 100.465C113.339 100.818 113.652 101.13 113.952 101.433L114.068 101.551C114.335 101.82 114.62 102.085 114.941 102.359C115.275 102.645 115.588 102.99 115.954 103.483L116.02 103.571C116.655 104.422 117.31 105.302 117.845 106.24C118.373 107.171 118.645 108.164 118.838 109.015C119.048 109.945 119.007 110.905 118.97 111.835L118.945 112.429C118.904 113.73 118.752 115.009 118.5 116.234L118.455 116.411C118.311 117.114 118.158 117.843 117.969 118.546C117.726 119.463 117.466 120.394 117.219 121.29C116.89 122.482 116.568 123.648 116.268 124.797C116.095 125.454 115.967 126.127 115.843 126.776C115.843 126.776 115.728 127.374 115.674 127.626L115.464 128.632C115.291 129.453 115.114 130.299 114.962 131.133C114.797 132.021 114.644 132.93 114.496 133.81L114.265 135.17L114.051 136.387C113.907 137.203 113.759 138.02 113.635 138.833C113.524 139.557 113.433 140.293 113.343 141.009L113.211 142.07C113.186 142.242 113.165 142.394 113.137 142.529C113.034 143.055 112.943 143.577 112.939 144.128C112.939 144.322 112.902 144.533 112.869 144.735L112.844 144.874C112.634 146.2 112.56 147.606 112.618 149.29C112.622 149.391 112.618 149.487 112.613 149.58C112.51 149.597 112.267 149.618 111.728 149.618Z" fill="white"></path><path d="M113.664 99.5677C113.478 99.3404 113.301 99.1131 113.136 98.8731C112.807 98.3932 112.378 97.7533 112.012 97.0882C111.414 96.0105 110.71 94.9833 110.092 94.0782C109.429 93.11 108.65 92.4953 107.711 92.1838C107.208 92.0196 106.66 91.9144 105.989 91.8512H105.98V91.7755C105.976 91.4429 105.972 91.1903 105.985 90.9293C106.038 89.9358 105.972 88.8749 105.779 87.5867C105.667 86.8458 105.606 86.168 105.597 85.5197C105.573 83.5285 105.634 81.3689 105.783 78.9146C105.807 78.5189 105.803 78.1105 105.799 77.719C105.795 77.4833 105.795 77.2559 105.795 77.0286C105.799 76.675 105.807 76.3172 105.82 75.9635C105.82 75.9635 105.985 68.8659 105.993 68.2891C106.005 67.6829 106.013 67.0809 106.022 66.4747C106.038 65.216 106.059 63.9152 106.112 62.6396C106.178 61.0483 106.314 59.8401 106.549 58.7287C106.578 58.594 106.59 58.4593 106.603 58.3246C106.611 58.2109 106.619 58.1183 106.635 58.0257C106.706 57.6047 106.767 57.1795 106.829 56.7585C106.982 55.7187 107.138 54.6452 107.41 53.618C107.542 53.1213 107.707 52.6582 107.904 52.2414C108.254 51.5089 108.885 51.0459 109.779 50.8733C109.981 50.8438 110.199 50.8228 110.43 50.8228C110.504 50.8228 110.578 50.827 110.652 50.8312C111.179 50.8606 111.571 51.1174 111.892 51.6395C112.115 52.0099 112.296 52.4014 112.44 52.8308C112.971 54.4305 113.029 56.085 113.046 57.7773C113.05 58.2993 113.054 58.8255 113.054 59.3475C113.058 60.4968 113.062 61.684 113.099 62.8501C113.128 63.751 113.198 64.6477 113.268 65.5191C113.297 65.8559 113.322 66.1926 113.346 66.5294C113.367 66.7862 113.387 67.0388 113.412 67.2956C113.458 67.7882 113.499 68.247 113.515 68.6975C113.598 70.8571 113.701 73.6945 113.75 76.5319C113.762 77.2349 113.754 77.9505 113.746 78.641V78.7167C113.742 79.2724 113.734 79.8449 113.738 80.4133C113.742 80.9816 113.701 81.5625 113.659 82.1266C113.635 82.4929 113.606 82.8676 113.589 83.238C113.569 83.7642 113.561 84.2989 113.552 84.8125C113.544 85.1998 113.54 85.5913 113.528 85.9786C113.511 86.4585 113.495 86.9384 113.478 87.4183C113.453 88.0288 113.429 88.656 113.416 89.2748L113.4 89.9189C113.363 91.3292 113.326 92.7858 113.416 94.2298C113.433 94.4613 113.437 94.697 113.445 94.9286C113.453 95.1264 113.458 95.299 113.466 95.4716L113.664 99.5677Z" fill="white"></path><path d="M94.627 112.925C94.1986 112.925 93.7495 112.837 93.2428 112.656C92.905 112.534 92.6002 112.29 92.3118 111.906C91.7762 111.199 91.4178 110.395 91.0965 109.633C90.5939 108.442 90.2149 107.196 89.9389 105.823C89.7823 105.049 89.6093 104.261 89.4445 103.504C89.2633 102.679 89.0779 101.824 88.9131 100.982C88.7895 100.359 88.6948 99.7191 88.6 99.1045C88.5465 98.7593 88.497 98.4225 88.4435 98.0857C88.3817 97.7111 88.3158 97.3322 88.2457 96.9575C88.1139 96.2208 87.978 95.4588 87.8873 94.7137C87.636 92.6509 87.6031 90.9544 87.7885 89.3841C87.875 88.639 87.9821 88.0244 88.2293 87.4434C88.4847 86.8372 88.8884 86.391 89.4322 86.1174C89.6382 86.0121 89.9059 85.9784 90.0872 85.9658C90.3426 85.9448 90.5774 85.9321 90.804 85.9321C91.6073 85.9321 92.2912 86.0753 92.8968 86.3699C93.2552 86.5425 93.5229 86.7446 93.7207 86.993C94.1285 87.5024 94.4911 87.9654 94.8165 88.458C94.9772 88.7022 95.0554 88.9926 95.1214 89.3084C94.8989 89.2494 94.6806 89.22 94.4581 89.22C94.0049 89.22 93.5435 89.342 93.0574 89.5946C92.044 90.1166 91.4055 90.9839 91.1047 92.2468C91.0224 92.592 90.9358 93.0045 90.9111 93.4213C90.874 94.0023 91.0388 94.5411 91.2242 95.0842C91.6115 96.2208 92.3406 97.1259 93.0492 98.0015C93.8154 98.9487 94.6435 99.7991 95.5127 100.532C95.5663 100.574 95.5869 100.607 95.5828 100.725L95.5786 100.831C95.5498 101.706 95.521 102.611 95.5004 103.504C95.4839 104.11 95.4756 104.72 95.4674 105.327L95.455 106.143L92.2953 106.846C92.0111 106.909 91.7227 106.973 91.4425 107.048C91.0429 107.158 90.8699 107.461 90.9729 107.886C91.1583 108.661 91.3931 109.326 91.6815 109.932C92.0317 110.669 92.5342 111.304 93.2099 111.873C93.7619 112.336 94.3922 112.399 94.9401 112.399L95.1584 112.395C95.2532 112.391 95.3479 112.382 95.4427 112.374C95.5168 112.365 95.591 112.357 95.6693 112.357C96.0689 112.34 96.419 112.205 96.7198 112.058L96.8063 112.138C96.625 112.264 96.4355 112.361 96.2501 112.458C96.1636 112.504 96.0771 112.546 95.9906 112.593C95.558 112.812 95.1131 112.925 94.627 112.925Z" fill="white"></path><path d="M104.844 91.8094C104.506 91.7842 104.185 91.7631 103.859 91.7505C102.483 91.6958 101.145 91.279 99.851 90.8791L99.6326 90.8117C98.8293 90.5633 98.026 90.3108 97.2268 90.0582L96.2999 89.7677C96.201 89.4393 96.1845 89.1825 96.2463 88.93C96.5141 87.8017 96.8807 86.8082 97.3627 85.8905C97.7129 85.2211 98.2237 84.7454 98.9199 84.4297C99.5667 84.1392 100.218 83.9961 100.91 83.9961C101.556 83.9961 102.224 84.1182 102.949 84.375C103.32 84.5055 103.583 84.7875 103.884 85.1117L103.999 85.238C104.49 85.76 104.63 86.4504 104.741 87.1787C104.848 87.8649 104.926 88.5637 105.005 89.2415L105.054 89.6751C105.075 89.8519 105.083 90.0498 105.079 90.2939C105.07 90.7065 105.058 91.119 105.042 91.5526L105.033 91.8263L104.844 91.8094Z" fill="white"></path><path d="M99.4884 112.272C98.9569 112.272 98.4791 112.117 98.0341 111.797C97.1731 111.178 96.6788 110.302 96.5222 109.119C96.4234 108.366 96.4234 107.595 96.4234 106.846C96.4234 106.446 96.4234 106.046 96.4069 105.646C96.3822 104.88 96.4275 104.097 96.4728 103.343C96.5016 102.868 96.5305 102.392 96.5428 101.921C96.547 101.706 96.547 101.487 96.547 101.255L96.6541 101.323C97.0166 101.542 97.3544 101.744 97.6963 101.937C98.9652 102.649 100.057 103.192 101.252 103.541C101.725 103.68 102.335 103.891 102.838 104.299C103.097 104.51 103.287 104.728 103.414 104.964C103.414 104.964 103.69 105.461 103.748 105.566C103.867 105.789 103.909 105.983 103.884 106.193C103.781 107.031 103.612 107.861 103.373 108.652C103.295 108.909 103.2 109.166 103.105 109.414C103.015 109.645 102.928 109.877 102.854 110.113C102.627 110.82 102.092 111.296 101.548 111.7C101.05 112.07 100.44 112.176 99.8591 112.247C99.7314 112.268 99.6078 112.272 99.4884 112.272ZM97.2143 108.568C97.2102 108.749 97.2061 108.921 97.2267 109.094L97.2432 109.233C97.2802 109.578 97.3214 109.936 97.445 110.277C97.6593 110.866 98.0506 111.262 98.582 111.414C98.8169 111.481 99.0311 111.544 99.2494 111.544L99.8138 111.548C100.082 111.548 100.399 111.54 100.72 111.477C101.289 111.363 101.746 110.976 102.117 110.298C102.475 109.645 102.693 108.909 102.768 108.113C102.829 107.465 102.899 106.812 102.961 106.236C103.015 105.764 102.879 105.57 102.434 105.474C100.967 105.149 99.4884 104.981 97.9723 104.825C97.9147 104.817 97.8611 104.817 97.8158 104.817C97.3874 104.817 97.3173 105.158 97.2802 105.343C97.1773 105.865 97.2267 107.705 97.2061 107.966L97.2143 108.568Z" fill="white"></path><path d="M99.3815 93.965C99.1425 93.8893 98.9613 93.8345 98.7883 93.7714C98.1085 93.5272 97.4865 93.1694 96.8067 92.761L96.3206 92.4748C95.8798 92.2138 95.4349 91.9528 95.0065 91.6749C94.5698 91.3887 94.1455 91.0898 93.7005 90.774L93.4204 90.5762C93.7253 90.3783 93.9766 90.2857 94.2361 90.2689C94.2773 90.2646 94.3226 90.2646 94.3679 90.2646C94.7057 90.2646 95.0518 90.3446 95.4267 90.513C95.8963 90.7235 96.3865 90.8919 96.8562 91.0519L97.0992 91.1361C97.8078 91.3802 98.5205 91.6202 99.2414 91.8644L99.9211 92.0959L99.3815 93.965Z" fill="white"></path><path d="M94.9859 111.305C94.2897 111.301 93.7624 111.027 93.4205 110.497C92.9179 109.709 92.4029 108.867 92.0898 107.954C92.2629 107.903 92.4235 107.857 92.5924 107.823C93.4122 107.655 94.2362 107.495 95.0601 107.335L95.4514 107.259C95.4473 107.449 95.4473 107.596 95.4556 107.743C95.4803 108.257 95.5132 108.855 95.5627 109.448C95.5997 109.924 95.7522 110.396 96.0364 110.93L96.1641 111.174C96.0199 111.233 95.8593 111.267 95.6739 111.284C95.5091 111.301 95.3279 111.305 95.093 111.305H94.9859Z" fill="white"></path><path d="M99.6739 110.568C99.3773 110.568 99.1054 110.525 98.8459 110.445C98.4999 110.336 98.2939 110.058 98.2486 109.646C98.2074 109.271 98.2032 108.884 98.1991 108.505L98.195 108.151C98.1868 107.76 98.1868 107.368 98.1868 106.977V105.865C99.1714 105.941 101.264 106.265 101.964 106.446C101.944 106.631 101.919 106.825 101.894 107.015L101.82 107.553C101.775 107.894 101.734 108.193 101.697 108.496C101.643 108.964 101.495 109.41 101.256 109.822C101.017 110.239 100.671 110.462 100.164 110.53C99.9994 110.555 99.8305 110.568 99.6739 110.568Z" fill="white"></path></svg> 