<svg xmlns="http://www.w3.org/2000/svg" width="170.41" height="95.04" viewBox="0 0 170.41 95.04"><g id="Layer_2" data-name="Layer 2"><g id="Layer_1-2" data-name="Layer 1"><path d="M107.78 22.53a19.37 19.37 0 011.68-8.78v-.08H98.58v.08a19 19 0 011.72 8.78v15.92c0 3.57-1 5.63-2.35 5.63-1.51 0-3-2.94-6.17-8.53l-.47.13 1 8.31a13.3 13.3 0 005.42 1c5.92 0 10.08-3.44 10.08-9.36zM122.39 45c6.17 0 11.29-5 11.29-10.83a11.3 11.3 0 00-22.59 0c0 5.83 5.12 10.83 11.3 10.83zm0-.8c-3 0-4.33-4.11-4.33-10s1.3-10.13 4.33-10.13 4.32 4.16 4.32 10.13-1.34 10.04-4.32 10.04zm21.09-27.3a3.69 3.69 0 00-3.7-3.61 3.64 3.64 0 000 7.27 3.7 3.7 0 003.7-3.66zM136 44.41h8.78v-.08a20.94 20.94 0 01-1-7.31V23.08l-8.86 2.43v.17c1.51 1.81 2.14 3.57 2.14 6.64V37a24 24 0 01-1.06 7.33zm20.8-.08a20.67 20.67 0 01-1-7.31v-8.53a4.65 4.65 0 013.69-2c2 0 2.9 1.3 2.9 3.1v7.52a20.76 20.76 0 01-1 7.27v.08h8.78v-.08a20.85 20.85 0 01-1-7.35v-7.91c0-3.57-2.6-5.83-6.3-5.83a8.11 8.11 0 00-7.05 4h-.17v-4.2l-8.69 2.43v.09c1.51 1.8 2.1 3.52 2.1 6.67v4.75a20.46 20.46 0 01-1 7.31v.08h8.78zM8.15 95a7.34 7.34 0 006.51-3.27l-.13-.13a4 4 0 01-2.39.71c-1.68 0-3-.79-3-3.31V74.88h5V74h-5v-4.91h-.49L0 74.5v.38h2.35V89.2c0 4.2 2.4 5.8 5.8 5.8zm17.15-.63v-.08a20.67 20.67 0 01-1-7.31v-8.49a4.78 4.78 0 013.74-2c2 0 2.85 1.3 2.85 3.1v7.52a20.76 20.76 0 01-1 7.27v.08h8.78v-.08a20.75 20.75 0 01-1-7.31v-7.9c0-3.57-2.6-5.83-6.3-5.83a8.11 8.11 0 00-7 4V61.69l-8.86 2.44v.08a9.5 9.5 0 012.1 6.68V87a20.6 20.6 0 01-1 7.31v.08zM51.4 74c1.64 0 2.69 1.64 2.69 5.63v1.6l-6 .08c.04-3.78 1.13-7.31 3.31-7.31zm9 14.24a7.3 7.3 0 01-5.42 2c-3.69 0-6.63-1.94-6.84-8.11h12.51a8.75 8.75 0 00-9-8.94c-5.83 0-10.37 4.7-10.37 11.25 0 5.88 3.82 10.5 10.21 10.5 4.83 0 8-2.64 9.11-6.63zm23.47 6.26l7.3-20.2 6.68 20.2h3.91l7.31-22.85c1.13-3.53 2.39-6.22 4.2-7.94v-.08h-7.57v.08c2.31 1.64 3.19 4.66 1.68 9.33l-4.2 13.23-4.62-14.12c-1.14-3.57-.93-6.42.75-8.4v-.08H86.46v.08c1.72 1.81 2.77 4.62 3.74 7.65l.38 1.17-5 14.07L81 72.15c-1.13-3.57-1-6.42.71-8.4v-.08H68.86v.08c1.72 1.81 2.77 4.58 3.74 7.65l7.31 23.14zM122 66.9a3.68 3.68 0 00-3.69-3.61 3.64 3.64 0 000 7.27A3.69 3.69 0 00122 66.9zm-7.47 27.51h8.78v-.08a20.71 20.71 0 01-1-7.31V73.08l-8.86 2.43v.17c1.51 1.81 2.14 3.57 2.14 6.64V87a24.33 24.33 0 01-1 7.31zm11.73 0H135v-.08a18.27 18.27 0 01-1-6.51V61.69l-8.87 2.44v.08c1.43 1.77 2.1 3.53 2.1 6.68v16.93a17.06 17.06 0 01-1 6.51zm22.23-2.81c-2.73 0-4.24-2.61-4.24-8.15C144.23 77 146 74 148.68 74c1.89 0 3 1.47 3.36 4.45V90a4.7 4.7 0 01-3.57 1.6zm3.7-.72V95l8.81-1.89V93c-1.35-1.47-2.15-2.73-2.15-7.44V61.69l-8.86 2.44v.08c1.43 1.77 2.1 3.53 2.1 6.72v2.9a12.13 12.13 0 00-3.74-.54c-7.22 0-11 5.5-11 11.84 0 5.84 3.11 9.91 7.89 9.91a7.91 7.91 0 006.93-4.16zm18.24-27.21H163v.08l3.36 19.78h.71l3.36-19.78zm-3.73 31a3.72 3.72 0 003.67-3.67 3.67 3.67 0 00-3.69-3.66 3.66 3.66 0 000 7.31zM17.39 19.66L20 18.08c6.13-3.75 10.15-6.21 18.4-6.18 8 0 12.15 3 16.15 5.93.66.47 1.31 1 2 1.41A16.29 16.29 0 0070.19 22C63.64 6.86 51.4.11 46.72 0c-4-.09-7.41 1.89-9.87 2S31.93.21 28 .16 17.1 4.19 12.58 8.7c-4 4-7.82 12.11-8.62 13.88.04.01 5.96 1.54 13.43-2.92zm-3-9.94c2.66-3 12-10.5 20-6.22a.49.49 0 01.2.69.6.6 0 01-.75.18C26.5.43 17.7 7.55 15.2 10.37a.6.6 0 01-.43.18.56.56 0 01-.35-.11.46.46 0 01-.07-.72zm31.08 17.16L45 27a20.53 20.53 0 01-2.18.62 26.91 26.91 0 01-3.2.67 24.26 24.26 0 01-3 .22 26.4 26.4 0 01-6.57-.89 9.46 9.46 0 01-1.27-.33c-1.26-.35-2.67-.78-4.25-1.32-6.76-2.27-19-1.9-20.56-1.84 4.75 11.92 13.88 16.4 18.73 17.64a56.79 56.79 0 0010.86 1.74 14 14 0 00-7.91-9.25.5.5 0 01-.3-.65.59.59 0 01.72-.27 15 15 0 014.36 2.88 10.56 10.56 0 013.37 4.1c1.61 4.07 1.42 5.68 1.47 10.09.09 8.45-.47 11.19-1 13.59-.79 3.76-.12 6.49 1.87 6.49 2.58 0 1.87-3.74 1.71-5.6s-1.32-3.28-1.24-9.6c0-3.84-.08-7.5-.11-9.74a13.27 13.27 0 01.78-4.17A6.54 6.54 0 0139 38.51a2.88 2.88 0 01.67-.49 3.43 3.43 0 011.91-.6 4.05 4.05 0 011.6.33A4.48 4.48 0 0145 38.92a7.59 7.59 0 011.6 2.83 9.39 9.39 0 01.66 3.07c0 2.42.08 7.06.08 7.06a26.61 26.61 0 01-.77 4.59c-.57 2.14-.3 4.8 1.25 4.78 1.07 0 1.66-1.36 1.15-3.87a22.36 22.36 0 01-.73-5.56c0-2.25-.07-6.31-.07-6.31a14.69 14.69 0 01.11-2.4v-.19c0-.21.06-.41.1-.61a3.15 3.15 0 01.09-.42 9.45 9.45 0 011.65-3.83c.09-.11.17-.22.27-.33A20.94 20.94 0 0153.63 34a.61.61 0 01.78 0 .48.48 0 010 .71s-4 3.49-4.88 7.51c.89-.2 1.81-.41 2.73-.66 12.7-3.36 17.11-15.36 17.92-18-1.21.08-8.52.58-14.63 1.14a49.78 49.78 0 00-10.08 2.18z"/><path d="M36.69 26l-7.89.06v.25a27.33 27.33 0 007.91 1.27zm2.77 1.35A39.22 39.22 0 0045 26v-.09l-7.2.09v1.54c.56-.07 1.1-.12 1.66-.19zm2.12 11.13a2.53 2.53 0 00-1.81.73 7.87 7.87 0 00-1.83 4.4 60.16 60.16 0 007.82-.71 7.28 7.28 0 00-1.62-3.33 3.3 3.3 0 00-2.56-1.09zm7.05-21.33a1.47 1.47 0 001.28.5 15.87 15.87 0 002.53-.11l-.88-.61h-.06c-.54-.36-1.09-.71-1.66-1l-.4-.23c-.27-.16-.54-.31-.83-.45zM27 15.26V18c.49.7 1.74 1.73 5 1.7s4.47-.66 4.84-1.45l-.06-5.31A23.54 23.54 0 0027 15.26zm11.39-2.38h-.52l.06 5.58c.53.64 1.76 1.11 4.69 1.09 3.22 0 4.45-1.09 4.92-1.8v-3.09a22.22 22.22 0 00-9.15-1.78zm-16.05 4.96a19.85 19.85 0 002.39.05 1.56 1.56 0 001.2-.43V15.8c-1.16.61-2.34 1.29-3.59 2.04z"/></g></g></svg>