<svg width="36" height="25" viewBox="0 0 36 25" fill="none" xmlns="http://www.w3.org/2000/svg"><path d="M30.86 14.03h-2.157c.146-.401.49-1.373 1.031-2.913l.047-.147c.042-.109.094-.25.157-.423a7.12 7.12 0 00.14-.423l.188.895.593 3.01zM8.296 12.972L7.39 8.171c-.115-.586-.506-.88-1.172-.88H2.03L2 7.504c3.24.857 5.339 2.68 6.297 5.469zm2.797-5.68l-2.53 7.128-.266-1.449c-.271-.76-.714-1.462-1.328-2.108-.615-.645-1.297-1.126-2.047-1.44l2.11 8.3h2.734l4.078-10.432h-2.75zm2.172 10.449h2.593l1.625-10.45H14.89l-1.625 10.45zm12-10.189a6.108 6.108 0 00-2.328-.44c-1.282 0-2.329.32-3.141.96-.813.641-1.224 1.471-1.235 2.491-.01 1.107.745 2.05 2.266 2.832.5.25.85.472 1.047.668.198.195.297.406.297.634 0 .326-.156.575-.469.749-.312.174-.672.26-1.078.26-.896 0-1.708-.179-2.438-.537l-.343-.179-.36 2.344c.771.369 1.735.553 2.891.553 1.354.011 2.44-.309 3.258-.96.818-.651 1.237-1.519 1.258-2.604 0-1.15-.73-2.094-2.188-2.832-.51-.271-.88-.5-1.11-.684-.228-.184-.343-.39-.343-.618 0-.239.128-.448.383-.627s.622-.268 1.101-.268c.73-.011 1.375.119 1.938.39l.234.13.36-2.262zm6.64-.26h-2c-.677 0-1.13.293-1.36.879l-3.843 9.57h2.719l.547-1.563h3.312c.052.24.157.76.313 1.563H34L31.906 7.29zM36 2.083v20.834c0 .564-.198 1.052-.594 1.464-.396.413-.864.619-1.406.619H2c-.542 0-1.01-.206-1.406-.619A2.044 2.044 0 010 22.918V2.083C0 1.52.198 1.031.594.618.99.206 1.458 0 2 0h32c.542 0 1.01.206 1.406.618.396.413.594.901.594 1.465z" fill="#000"/></svg>