<svg width="31" height="30" viewBox="0 0 31 30" fill="none" xmlns="http://www.w3.org/2000/svg">
  <path d="M30.054 24.7992C26.7435 21.6059 23.3096 18.3808 19.8282 15.1938C22.9868 11.5193 25.9713 7.61387 28.7121 3.54066C29.4147 2.49624 29.2723 1.2113 28.3703 0.483374C27.443 -0.269871 26.1042 -0.124286 25.1864 0.825182C21.9677 4.16098 18.7174 7.6202 15.5082 11.1269L15.1442 10.7661L15.0587 10.8832C11.6027 7.79427 8.12763 4.76231 4.70955 1.8601C4.63043 1.79364 4.55763 1.743 4.4975 1.70502C4.42787 1.65755 4.35508 1.61324 4.26646 1.5626C4.17152 1.50563 4.07657 1.45816 3.99112 1.42335C3.82654 1.35372 3.6588 1.30308 3.47841 1.26827L3.27585 1.23662C2.58907 1.16383 1.92444 1.39486 1.46237 1.8696C1.03195 2.31585 0.823062 2.9235 0.883195 3.55015C0.914844 3.92678 1.0541 4.44265 1.50668 4.95536C4.48801 8.63297 7.82697 12.2125 11.4413 15.6274C8.2922 19.1467 5.20327 22.6851 2.24726 26.1696C2.1808 26.2488 2.13016 26.3215 2.09218 26.3817C2.03205 26.4703 1.98458 26.5463 1.9466 26.6127C1.8928 26.7077 1.84216 26.8026 1.81051 26.8817C1.73772 27.0495 1.68708 27.2204 1.65226 27.4008L1.62061 27.6002C1.54782 28.2901 1.77886 28.9516 2.25359 29.4136C2.6492 29.7966 3.17141 30.0055 3.7221 30.0055C3.79173 30.0055 3.86452 30.0023 3.93415 29.996C4.31077 29.9643 4.82665 29.8251 5.33936 29.3725C8.96316 26.4355 12.4888 23.1503 15.8563 19.5962C19.4801 22.6977 23.3254 25.6284 27.3322 28.3281C27.7753 28.6256 28.2627 28.7712 28.7311 28.7712C29.3672 28.7712 29.9717 28.5053 30.3895 27.9863C31.1459 27.0558 31.0035 25.7171 30.054 24.7992Z" fill="black"/>
</svg>
