<svg width="36" height="25" viewBox="0 0 36 25" fill="none" xmlns="http://www.w3.org/2000/svg"><path d="M11.64 12.663c0 .401-.132.735-.398 1a1.327 1.327 0 01-.976.4c-.302 0-.545-.087-.727-.26-.182-.175-.273-.413-.273-.717 0-.402.13-.74.39-1.017.26-.277.584-.415.969-.415.292 0 .534.09.727.268.192.18.289.426.289.74zm12.266-2.425c0 .455-.114.765-.343.927-.23.163-.573.245-1.032.245l-.5.016.266-1.742c.02-.12.088-.179.203-.179h.281c.23 0 .412.011.547.033a.76.76 0 01.39.203c.126.114.188.28.188.497zm5.485 2.425c0 .39-.133.721-.399.993a1.296 1.296 0 01-.96.406c-.303 0-.548-.086-.735-.26-.188-.173-.281-.412-.281-.716 0-.402.13-.74.39-1.017.26-.277.584-.415.969-.415.292 0 .534.09.727.268.192.18.289.426.289.74zM8.016 9.88c0-.64-.2-1.105-.602-1.392-.401-.288-.924-.431-1.57-.431h-2.5c-.198 0-.308.103-.328.309L2 15.006a.225.225 0 00.047.18.19.19 0 00.156.08h1.188c.208 0 .323-.102.343-.308l.282-1.79a.32.32 0 01.109-.212.473.473 0 01.234-.106c.094-.016.183-.024.266-.024.083 0 .182.005.297.016.114.01.187.016.219.016.895 0 1.599-.263 2.109-.79.51-.526.766-1.255.766-2.188zm4.828 5.078l.64-4.248a.225.225 0 00-.046-.18.19.19 0 00-.157-.08h-1.187c-.146 0-.235.178-.266.536-.281-.434-.776-.65-1.484-.65-.75 0-1.388.292-1.914.878a2.994 2.994 0 00-.79 2.067c0 .64.18 1.15.54 1.53.36.38.84.57 1.445.57.292 0 .594-.065.906-.196a1.97 1.97 0 00.75-.52c-.041.13-.062.244-.062.342 0 .173.068.26.203.26H12.5c.198 0 .313-.103.344-.31zm6.984-4.28a.235.235 0 00-.062-.155c-.042-.05-.089-.074-.141-.074h-1.203c-.115 0-.209.055-.281.163l-1.657 2.539-.687-2.441c-.052-.174-.167-.26-.344-.26h-1.172c-.052 0-.099.024-.14.073a.235.235 0 00-.063.154c0 .022.102.342.305.96l.656 2.002c.234.716.357 1.096.367 1.14-.854 1.215-1.281 1.866-1.281 1.953 0 .14.068.211.203.211h1.203c.115 0 .209-.054.281-.162l3.985-5.99c.02-.022.031-.06.031-.114zm5.938-.798c0-.64-.2-1.105-.602-1.392-.401-.288-.924-.431-1.57-.431h-2.485c-.208 0-.323.103-.343.309l-1.016 6.64a.225.225 0 00.047.18.19.19 0 00.156.08h1.281c.125 0 .209-.07.25-.21l.282-1.889a.32.32 0 01.109-.211.473.473 0 01.234-.106c.094-.016.183-.024.266-.024.083 0 .182.005.297.016.114.01.187.016.219.016.896 0 1.599-.263 2.109-.79.51-.526.766-1.255.766-2.188zm4.828 5.078l.64-4.248a.225.225 0 00-.047-.18.19.19 0 00-.156-.08h-1.187c-.146 0-.235.178-.266.536-.27-.434-.765-.65-1.484-.65-.75 0-1.388.292-1.914.878a2.994 2.994 0 00-.79 2.067c0 .64.18 1.15.54 1.53.36.38.84.57 1.445.57.302 0 .61-.065.922-.196.312-.13.557-.303.734-.52 0 .01-.01.06-.031.146a.926.926 0 00-.031.196c0 .173.067.26.203.26h1.078c.198 0 .313-.103.344-.31zM34 8.3v-.017c0-.151-.068-.227-.203-.227H32.64c-.115 0-.183.06-.203.179l-1.016 6.77-.016.033c0 .054.021.106.063.155a.197.197 0 00.156.073h1.031c.198 0 .308-.103.328-.31L34 8.302zM6.125 10.48c-.052.38-.188.63-.406.75-.219.119-.532.178-.938.178l-.515.017.265-1.742c.021-.12.089-.179.203-.179h.297c.417 0 .719.063.907.187.187.125.25.388.187.79zM36 2.084v20.834c0 .564-.198 1.052-.594 1.464-.396.413-.864.619-1.406.619H2c-.542 0-1.01-.206-1.406-.619A2.044 2.044 0 010 22.918V2.083C0 1.52.198 1.031.594.618.99.206 1.458 0 2 0h32c.542 0 1.01.206 1.406.618.396.413.594.901.594 1.465z" fill="#000"/></svg>