<?xml version="1.0" encoding="UTF-8"?> <svg xmlns="http://www.w3.org/2000/svg" width="200" height="200" viewBox="0 0 200 200" fill="none"><circle cx="100" cy="100" r="100" fill="black"></circle><path d="M103.447 7.55273L105.47 7.74539L104.506 19.5937L111.442 20.1716L111.346 21.9055L102.387 21.1349L103.447 7.55273Z" fill="white"></path><path d="M115.295 15.741C116.355 11.5026 118.667 9.19072 122.231 10.154C125.795 11.0209 126.758 14.0071 125.699 18.2455C124.639 22.4839 122.327 24.6994 118.763 23.8325C115.295 22.8692 114.332 19.8831 115.295 15.741ZM123.772 17.6675C124.35 15.452 124.735 12.4659 121.846 11.6952C118.956 11.0209 117.896 13.8144 117.414 16.1263C116.837 18.3418 116.451 21.328 119.341 22.0986C122.135 22.7729 123.194 19.8831 123.772 17.6675Z" fill="white"></path><path d="M130.708 12.6582L132.634 13.5252L132.056 21.2313L131.575 25.7587L134.464 22.291L139.57 16.415L141.496 17.1856L131.767 27.8779L129.744 27.011L130.708 12.6582Z" fill="white"></path><path d="M145.446 19.4014L152.959 24.1214L152.092 25.5663L146.313 21.9059L144.097 25.3737L149.106 28.5525L148.239 29.9974L143.23 26.8186L140.918 30.479L146.698 34.1395L145.831 35.5844L138.317 30.8643L145.446 19.4014Z" fill="white"></path><path d="M161.436 42.3266C165 39.3404 166.445 39.7257 167.312 40.7853C167.89 41.4596 167.986 42.2302 167.601 43.0972L168.372 42.4229L169.431 43.6752L163.459 48.6842C162.688 49.3585 162.688 49.9364 163.17 50.5144C163.652 51.0924 164.229 51.0924 165 50.5144L170.298 46.0833C172.417 44.3495 173.381 42.8082 171.454 40.5927C170.105 38.9551 168.853 38.8588 167.794 39.7257L166.638 38.3771C167.794 37.4139 170.202 36.6433 172.803 39.7257C176.078 43.5788 173.284 45.987 171.454 47.5283L166.156 51.863C164.229 53.5006 162.688 52.441 161.918 51.574C160.858 50.3218 161.147 49.2622 161.629 48.6842C160.473 48.9732 159.606 48.7805 158.835 47.9136C157.968 46.6613 157.968 45.2164 161.436 42.3266ZM161.821 47.7209L166.734 43.5788C166.927 43.0972 166.83 42.5192 166.541 42.0376C165.963 41.3633 165.289 41.556 162.688 43.6752C160.087 45.7944 159.798 46.4687 160.376 47.1429C160.665 47.7209 161.243 47.9136 161.821 47.7209Z" fill="white"></path><path d="M184.555 62.0742L187.83 70.3584L186.192 71.0327L183.591 64.5787L179.353 66.2163L181.568 71.8996L180.027 72.5739L177.812 66.8906L172.61 69.0098L171.839 67.1796L184.555 62.0742Z" fill="white"></path><path d="M177.908 78.5462L178.582 81.8213L188.504 79.6058L187.83 76.3306L189.467 75.9453L191.298 84.3258L189.66 84.7111L188.986 81.5323L179.064 83.7478L179.738 86.9266L178.101 87.312L176.271 78.9315L177.908 78.5462Z" fill="white"></path><path d="M192.165 90.394L192.357 93.8618C192.55 97.3296 191.201 99.5452 188.6 99.7378C186.385 99.8341 184.94 98.5819 184.362 96.7517L179.257 101.279L179.064 98.7745L183.88 94.7288L183.784 92.8986L178.775 93.1875L178.679 91.1647L192.165 90.394ZM185.422 92.8022L185.518 94.3435C185.711 96.848 186.77 97.8113 188.311 97.7149C189.853 97.6186 190.816 96.559 190.72 94.0545L190.623 92.5133L185.422 92.8022Z" fill="white"></path><path d="M183.013 103.398L182.821 105.325C181.28 105.229 180.316 106.192 180.124 108.215C179.931 110.045 180.509 111.297 181.954 111.394C183.013 111.49 183.591 110.816 184.073 109.66L185.422 106.866C186.192 105.325 187.348 104.073 189.275 104.265C191.683 104.458 192.743 106.674 192.454 109.371C192.165 112.068 190.72 113.898 187.926 113.609L188.119 111.683C190.045 111.779 190.623 110.43 190.72 109.178C190.912 107.444 190.238 106.385 189.082 106.288C188.215 106.192 187.541 106.77 187.059 107.83L185.711 110.623C184.747 112.742 183.688 113.609 181.858 113.417C179.064 113.128 178.101 110.816 178.39 108.022C178.679 104.94 180.316 103.11 183.013 103.398Z" fill="white"></path><path d="M188.215 122.375L189.371 117.944L191.009 118.425L188.119 129.214L186.481 128.733L187.637 124.301L176.174 121.315L176.656 119.389L188.215 122.375Z" fill="white"></path><path d="M180.027 146.939L177.715 150.503C176.174 152.911 173.862 153.874 171.936 152.526C170.78 151.755 170.394 150.695 170.683 149.347C169.72 150.117 168.179 150.695 166.734 149.732C164.711 148.48 164.615 145.879 166.156 143.471L168.661 139.618L180.027 146.939ZM169.046 142.122L167.601 144.241C166.445 146.072 166.83 147.324 167.89 147.998C169.046 148.769 170.202 148.383 171.358 146.553L172.706 144.434L169.046 142.122ZM174.055 145.494L172.995 147.131C171.839 148.865 171.839 150.021 172.995 150.792C174.055 151.466 175.211 151.273 176.367 149.443L177.523 147.709L174.055 145.494Z" fill="white"></path><path d="M162.881 151.081L160.665 153.585L168.179 160.424L170.395 157.92L171.647 159.076L165.867 165.434L164.615 164.278L166.83 161.869L159.317 155.03L157.101 157.438L155.849 156.282L161.629 149.925L162.881 151.081Z" fill="white"></path><path d="M157.872 170.346L161.436 167.456L162.496 168.805L153.826 175.837L152.767 174.488L156.331 171.598L148.914 162.351L150.455 161.099L157.872 170.346Z" fill="white"></path><path d="M149.781 178.438L142.074 182.869L141.208 181.424L147.18 178.053L145.157 174.488L139.955 177.475L139.088 176.03L144.29 173.044L142.171 169.287L136.198 172.658L135.332 171.213L143.038 166.782L149.781 178.438Z" fill="white"></path><path d="M123.965 187.3C124.446 189.708 123.29 191.057 121.749 191.346C120.497 191.635 118.956 191.057 118.281 189.612C118.185 191.153 117.029 192.309 115.777 192.598C114.332 192.887 112.694 192.116 112.213 189.708C111.635 186.818 112.694 182.098 115.873 177.86C120.593 180.461 123.387 184.41 123.965 187.3Z" fill="white"></path><path d="M93.7178 192.694L91.6949 192.502L93.0435 180.75L86.1079 179.979L86.3006 178.245L95.1627 179.305L93.7178 192.694Z" fill="white"></path><path d="M81.9661 184.217C80.8101 188.456 78.4019 190.575 74.8378 189.612C71.37 188.648 70.4068 185.662 71.659 181.424C72.8149 177.185 75.2231 175.066 78.7873 176.029C82.255 176.993 83.122 180.075 81.9661 184.217ZM73.6819 181.905C73.1039 184.121 72.526 187.107 75.4158 187.878C78.3056 188.648 79.3652 185.855 80.0395 183.639C80.6175 181.424 81.1954 178.438 78.3056 177.667C75.4158 176.896 74.2599 179.786 73.6819 181.905Z" fill="white"></path><path d="M66.5537 186.722L64.6271 185.855L65.4941 178.149L66.072 173.621L63.0859 176.993L57.7879 182.676L55.8613 181.809L65.8794 171.502L67.9023 172.465L66.5537 186.722Z" fill="white"></path><path d="M52.0081 179.497L44.6873 174.584L45.6505 173.14L51.3339 176.993L53.6457 173.621L48.733 170.346L49.6963 168.901L54.609 172.176L57.0172 168.516L51.3339 164.663L52.2971 163.218L59.5217 168.227L52.0081 179.497Z" fill="white"></path><path d="M36.7883 156.089C33.1279 158.979 31.683 158.498 30.9123 157.438C30.3344 156.667 30.238 155.993 30.7197 155.03L29.9491 155.704L28.9858 154.452L35.1507 149.636C35.9214 149.058 36.0177 148.383 35.5361 147.805C35.0544 147.227 34.4765 147.131 33.7058 147.805L28.2152 152.044C25.9996 153.778 25.0364 155.223 26.8666 157.438C28.2152 159.172 29.4674 159.268 30.527 158.401L31.5866 159.846C30.3344 160.809 28.0225 161.484 25.518 158.305C22.4355 154.356 25.3253 152.044 27.0592 150.599L32.4536 146.36C34.4765 144.819 35.9214 145.879 36.692 146.842C37.6553 148.094 37.3663 149.154 36.8846 149.732C38.0406 149.539 38.9075 149.732 39.5818 150.599C40.3524 151.851 40.3524 153.2 36.7883 156.089ZM36.5957 150.599L31.5866 154.548C31.394 155.03 31.394 155.608 31.7793 156.089C32.3572 156.764 33.0315 156.667 35.6324 154.548C38.2332 152.429 38.6185 151.851 38.0406 151.177C37.6553 150.695 37.0773 150.502 36.5957 150.599Z" fill="white"></path><path d="M14.3441 135.572L11.3579 127.095L12.9955 126.517L15.3073 133.067L19.5457 131.526L17.5229 125.746L19.1604 125.168L21.1833 130.948L26.4813 129.022L27.1556 130.948L14.3441 135.572Z" fill="white"></path><path d="M21.4723 119.389L20.8943 116.114L10.8762 117.944L11.4542 121.219L9.81663 121.508L8.27539 113.031L9.91296 112.742L10.4909 116.017L20.509 114.187L19.931 110.912L21.5686 110.623L23.1098 119.1L21.4723 119.389Z" fill="white"></path><path d="M7.60115 107.059L7.50482 103.495C7.40849 100.027 8.75708 97.8113 11.4542 97.715C13.6698 97.6187 15.1147 98.9673 15.5963 100.894L20.8943 96.5591L20.9907 99.0636L16.078 103.013L16.1743 104.843L21.1833 104.747L21.2796 106.77L7.60115 107.059ZM14.4404 104.843V103.302C14.3441 100.701 13.2845 99.8342 11.7432 99.8342C10.202 99.8342 9.23871 100.894 9.23871 103.398V104.94L14.4404 104.843Z" fill="white"></path><path d="M17.1375 94.3439L17.4265 92.4174C18.9677 92.5137 20.0273 91.6467 20.22 89.6239C20.4126 87.7936 19.931 86.5414 18.5824 86.3487C17.5228 86.2524 16.9448 86.8304 16.3669 87.9863L14.922 90.7798C14.1513 92.321 12.8991 93.5733 10.9725 93.2843C8.56435 92.9953 7.60107 90.6835 7.89006 88.0826C8.27537 85.3855 9.81661 83.6516 12.6101 83.9405L12.3211 85.8671C10.3946 85.6744 9.81661 87.023 9.62395 88.3716C9.4313 90.1055 10.1056 91.1651 11.1652 91.2614C12.0321 91.3578 12.7064 90.8761 13.2844 89.8165L14.7293 87.023C15.7889 84.9038 16.8485 84.0369 18.6787 84.3259C21.4722 84.7112 22.3392 87.023 21.9539 89.8165C21.5686 92.899 19.8347 94.7292 17.1375 94.3439Z" fill="white"></path><path d="M12.61 75.1746L11.3578 79.6056L9.72021 79.124L12.899 68.4316L14.5366 68.9133L13.188 73.3443L24.5546 76.7158L23.9767 78.6424L12.61 75.1746Z" fill="white"></path><path d="M21.5686 50.9003L23.9768 47.4325C25.6144 45.0243 27.9262 44.2537 29.8528 45.506C31.0087 46.2766 31.2977 47.4325 31.0087 48.6848C31.972 47.9142 33.5132 47.4325 34.9581 48.4921C36.8847 49.8407 36.981 52.4415 35.3434 54.8497L32.6463 58.7028L21.5686 50.9003ZM27.4446 52.5379L28.6005 50.9003C29.7564 49.2627 29.8528 48.1068 28.6968 47.2399C27.7336 46.5656 26.4813 46.6619 25.3254 48.3958L24.1694 50.1297L27.4446 52.5379ZM32.4536 56.0057L33.8985 53.8865C35.1508 52.0562 34.7655 50.804 33.8022 50.1297C32.7426 49.3591 31.4903 49.7444 30.3344 51.3819L28.8895 53.5975L32.4536 56.0057Z" fill="white"></path><path d="M38.9076 47.3363L41.2195 44.9281L33.8986 37.8962L31.5867 40.3044L30.3345 39.1485L36.3068 32.8872L37.559 34.0431L35.2472 36.4513L42.5681 43.4832L44.8799 41.075L46.1322 42.231L40.1599 48.4923L38.9076 47.3363Z" fill="white"></path><path d="M44.4945 28.2629L40.834 31.0564L39.7744 29.7078L48.7329 22.9648L49.7925 24.3134L46.132 27.1069L53.2603 36.547L51.6227 37.7029L44.4945 28.2629Z" fill="white"></path><path d="M52.875 20.4604L60.6775 16.3184L61.4481 17.8596L55.3795 21.0384L57.3061 24.6988L62.6041 21.9054L63.3747 23.4466L58.0767 26.2401L60.0996 30.0932L66.1682 26.9144L66.9388 28.4556L59.2326 32.405L52.875 20.4604Z" fill="white"></path><path d="M78.8835 12.3691C78.4982 9.96094 79.7505 8.61235 81.1954 8.4197C82.4477 8.22704 83.9889 8.80501 84.5669 10.2499C84.6632 8.70868 85.9154 7.64908 87.1677 7.36009C88.6126 7.07111 90.2502 7.93806 90.6355 10.3462C91.1171 13.2361 89.8649 17.9561 86.5897 22.0982C82.0623 19.3047 79.3652 15.2589 78.8835 12.3691Z" fill="white"></path></svg> 