<?xml version="1.0" encoding="UTF-8"?> <svg xmlns="http://www.w3.org/2000/svg" width="200" height="200" viewBox="0 0 200 200" fill="none"><circle cx="100" cy="100" r="100" fill="black"></circle><path d="M103.867 23.5601L110.988 15.0305L104.748 14.4946L104.869 13L113.256 13.7171L113.143 15.0229L106.022 23.5525L112.472 24.1035L112.344 25.5981L103.746 24.8659L103.867 23.5601Z" fill="white"></path><path d="M119.254 14.7437L126.767 16.6156L126.405 18.0725L120.588 16.6232L119.721 20.1105L124.778 21.3711L124.416 22.8279L119.359 21.5673L118.44 25.2811L124.258 26.7303L123.896 28.1872L116.383 26.3152L119.254 14.7437Z" fill="white"></path><path d="M132.743 18.6538L135.577 19.8691C138.388 21.0768 139.616 22.979 138.689 25.1529C137.936 26.9192 136.33 27.5683 134.658 27.2891L136.195 33.0937L134.175 32.2332L132.872 26.8513L131.417 26.2323L129.676 30.3159L128.071 29.6064L132.743 18.6538ZM131.99 24.8736L133.233 25.4095C135.291 26.2927 136.444 25.7945 136.971 24.549C137.491 23.3262 137.061 22.126 135.004 21.2504L133.761 20.722L131.99 24.8736Z" fill="white"></path><path d="M141.424 29.2365C143.482 25.9681 146.044 24.7604 148.757 26.4738C151.454 28.1797 151.447 30.9198 149.42 34.1353C147.363 37.4038 144.815 38.5964 142.103 36.8829C139.405 35.1846 139.412 32.437 141.424 29.2365ZM147.845 33.222C148.915 31.5236 150.121 29.1384 147.905 27.7344C145.69 26.3379 144.062 28.4515 142.992 30.1498C141.937 31.8331 140.731 34.2184 142.939 35.6148C145.147 37.0112 146.79 34.8977 147.845 33.222Z" fill="white"></path><path d="M167.167 42.2119L169.39 44.8991C171.274 47.1787 171.613 49.4734 169.646 51.1038C167.679 52.7342 165.501 51.9945 163.602 49.6998L162.502 48.3638L159.126 51.1717L158.011 49.8206L167.167 42.2119ZM163.655 47.4051L164.77 48.7563C166.195 50.4848 167.446 50.5679 168.485 49.7074C169.51 48.8544 169.669 47.5938 168.244 45.8728L167.129 44.5217L163.655 47.4051Z" fill="white"></path><path d="M175.705 53.3306L176.594 54.8402L167.642 60.1467L170.746 65.4078L169.458 66.1702L165.464 59.3994L175.705 53.3306Z" fill="white"></path><path d="M183.421 68.314L184.114 70.0878L174.574 78.3608L173.881 76.5869L176.164 74.6696L174.468 70.3445L171.492 70.4954L170.813 68.7669L183.421 68.314ZM175.96 70.2086L177.332 73.711L178.779 72.4882L182.064 69.8312L177.852 70.1256L175.96 70.2086Z" fill="white"></path><path d="M178.606 80.097L178.968 81.7727C177.649 82.1501 177.099 83.1994 177.468 84.9128C177.807 86.4829 178.651 87.3811 179.827 87.1245C180.731 86.9282 181.017 86.2413 181.16 85.1015L181.5 82.4068C181.688 80.8971 182.321 79.5233 184.009 79.1535C186.074 78.7006 187.558 80.2631 188.056 82.5502C188.568 84.9053 187.792 86.7848 185.403 87.3283L185.041 85.6752C186.677 85.2298 186.812 83.9919 186.564 82.837C186.232 81.3274 185.381 80.6707 184.431 80.882C183.647 81.0556 183.271 81.6972 183.15 82.7163L182.803 85.411C182.555 87.434 181.937 88.4756 180.347 88.8228C177.973 89.3437 176.526 87.6453 175.999 85.2298C175.433 82.5879 176.277 80.6103 178.606 80.097Z" fill="white"></path><path d="M188.184 95.7294L187.958 91.7212L189.45 91.6382L190 101.451L188.508 101.534L188.282 97.4806L177.898 98.0618L177.8 96.3106L188.184 95.7294Z" fill="white"></path><path d="M179.45 105.731L179.157 108.637L188.019 109.528L188.313 106.629L189.805 106.78L189.043 114.306L187.551 114.155L187.838 111.271L178.976 110.381L178.689 113.264L177.197 113.113L177.951 105.587L179.45 105.731Z" fill="white"></path><path d="M182.328 118.276C186.224 119.31 187.897 121.574 187.076 124.677C186.548 126.654 185.094 128.609 181.989 127.892L182.426 126.254C184.159 126.541 185.222 125.771 185.621 124.239C186.307 121.642 184.114 120.623 181.868 120.027C179.751 119.461 177.317 119.257 176.624 121.846C176.164 123.582 176.729 124.586 178.387 125.16L177.95 126.813C175.018 125.922 174.596 123.56 175.162 121.431C176.006 118.231 178.59 117.279 182.328 118.276Z" fill="white"></path><path d="M170.859 141.547L169.924 142.982C168.726 142.302 167.596 142.649 166.639 144.114C165.765 145.457 165.719 146.688 166.722 147.352C167.498 147.858 168.191 147.578 169.095 146.884L171.251 145.239C172.456 144.31 173.873 143.797 175.327 144.748C177.091 145.903 177.031 148.054 175.749 150.024C174.431 152.04 172.554 152.802 170.489 151.481L171.409 150.062C172.871 150.915 173.85 150.145 174.499 149.149C175.343 147.858 175.207 146.786 174.393 146.25C173.722 145.812 172.999 145.993 172.185 146.62L170.03 148.265C168.417 149.503 167.242 149.798 165.878 148.907C163.843 147.578 164.031 145.352 165.38 143.284C166.865 141.034 168.862 140.249 170.859 141.547Z" fill="white"></path><path d="M169.518 158.214L168.343 159.512L164.575 156.093L161.884 159.067L165.652 162.486L164.477 163.785L155.652 155.784L156.828 154.485L160.784 158.078L163.474 155.104L159.518 151.511L160.694 150.213L169.518 158.214Z" fill="white"></path><path d="M156.692 162.977C159.111 165.989 159.419 168.804 156.918 170.82C154.438 172.82 151.846 171.922 149.472 168.955C147.053 165.944 146.759 163.143 149.261 161.135C151.741 159.135 154.325 160.033 156.692 162.977ZM150.844 167.77C152.102 169.333 153.964 171.25 155.998 169.612C158.04 167.974 156.571 165.74 155.312 164.17C154.069 162.622 152.208 160.705 150.173 162.343C148.138 163.981 149.6 166.215 150.844 167.77Z" fill="white"></path><path d="M148.485 176.655L145.463 178.383C142.901 179.848 140.58 179.787 139.314 177.568C138.048 175.349 139.156 173.326 141.74 171.846L143.24 170.986L141.07 167.166L142.592 166.298L148.485 176.655ZM143.986 172.292L142.464 173.16C140.52 174.269 140.218 175.485 140.889 176.662C141.545 177.817 142.758 178.194 144.702 177.085L146.224 176.217L143.986 172.292Z" fill="white"></path><path d="M116.662 176.458C120.859 175.613 123.21 178.089 123.858 181.304C124.506 184.52 123.301 187.713 119.096 188.566C114.898 189.411 112.547 186.935 111.899 183.727C111.251 180.519 112.464 177.304 116.662 176.458Z" fill="white"></path><path d="M96.692 179.47L89.3145 187.781L95.539 188.505L95.3657 189.992L87.001 189.019L87.1517 187.72L94.5292 179.41L88.0937 178.662L88.267 177.175L96.8427 178.172L96.692 179.47Z" fill="white"></path><path d="M81.0329 187.803L73.5801 185.697L73.987 184.256L79.7519 185.886L80.724 182.429L75.7052 181.01L76.1121 179.568L81.1309 180.987L82.1708 177.304L76.406 175.673L76.8129 174.231L84.2658 176.337L81.0329 187.803Z" fill="white"></path><path d="M67.6872 183.486L64.8914 182.187C62.1183 180.897 60.9502 178.957 61.945 176.806C62.7513 175.062 64.379 174.466 66.0444 174.798L64.688 168.948L66.6774 169.876L67.8153 175.296L69.2471 175.96L71.116 171.937L72.706 172.677L67.6872 183.486ZM68.6292 177.281L67.4084 176.715C65.3813 175.771 64.2132 176.232 63.648 177.455C63.0904 178.662 63.4823 179.87 65.5094 180.814L66.7302 181.38L68.6292 177.281Z" fill="white"></path><path d="M59.3301 172.632C57.1674 175.84 54.5751 176.964 51.915 175.168C49.2699 173.379 49.3679 170.639 51.493 167.484C53.6557 164.276 56.2329 163.166 58.8931 164.962C61.5306 166.751 61.4402 169.491 59.3301 172.632ZM53.0302 168.442C51.9074 170.11 50.6339 172.458 52.7966 173.922C54.9669 175.387 56.6625 173.326 57.7853 171.658C58.8931 170.012 60.1742 167.665 58.0039 166.193C55.8411 164.736 54.138 166.797 53.0302 168.442Z" fill="white"></path><path d="M34.002 158.878L31.8618 156.123C30.0457 153.791 29.7819 151.481 31.794 149.911C33.806 148.341 35.9613 149.149 37.7925 151.504L38.855 152.87L42.3214 150.168L43.3991 151.549L34.002 158.878ZM37.6719 153.791L36.5943 152.409C35.2228 150.643 33.9718 150.515 32.9093 151.345C31.8618 152.16 31.6583 153.421 33.0298 155.187L34.1075 156.569L37.6719 153.791Z" fill="white"></path><path d="M25.803 147.481L24.959 145.941L34.0773 140.921L31.1383 135.569L32.4495 134.845L36.2325 141.736L25.803 147.481Z" fill="white"></path><path d="M18.5614 132.293L17.9209 130.504L27.7174 122.526L28.3579 124.315L26.0143 126.164L27.5817 130.542L30.5659 130.482L31.1914 132.233L18.5614 132.293ZM26.0821 130.633L24.8161 127.093L23.3316 128.278L19.9631 130.829L24.1831 130.663L26.0821 130.633Z" fill="white"></path><path d="M23.7388 120.654L23.4298 118.97C24.7637 118.638 25.3439 117.604 25.0274 115.883C24.7335 114.306 23.9196 113.377 22.7365 113.604C21.8247 113.77 21.5233 114.449 21.3424 115.581L20.9129 118.261C20.6793 119.763 20.0011 121.114 18.3055 121.431C16.2332 121.816 14.7938 120.216 14.3718 117.906C13.9348 115.536 14.7712 113.687 17.1676 113.219L17.4766 114.879C15.8338 115.272 15.6529 116.51 15.8715 117.672C16.1503 119.189 16.9867 119.869 17.9438 119.695C18.735 119.552 19.1269 118.918 19.2852 117.899L19.7147 115.219C20.0312 113.204 20.6717 112.185 22.2693 111.883C24.6582 111.437 26.0523 113.181 26.5044 115.611C26.9867 118.261 26.0749 120.216 23.7388 120.654Z" fill="white"></path><path d="M14.6428 104.735L14.7483 108.75L13.2487 108.788L13 98.9601L14.4996 98.9224L14.6051 102.976L25.0045 102.712L25.0497 104.463L14.6428 104.735Z" fill="white"></path><path d="M23.6781 95.0048L24.0549 92.1138L15.2305 90.9513L14.8537 93.8423L13.3691 93.6461L14.3563 86.1431L15.8409 86.3393L15.4641 89.2077L24.2885 90.3701L24.6652 87.5018L26.1498 87.698L25.1626 95.201L23.6781 95.0048Z" fill="white"></path><path d="M21.1914 82.3765C17.3331 81.2216 15.7279 78.9118 16.6473 75.8321C17.2351 73.8695 18.7498 71.9598 21.8319 72.775L21.3496 74.3979C19.6239 74.0583 18.5463 74.7904 18.0942 76.3152C17.3255 78.8892 19.4883 79.9761 21.7113 80.6404C23.8138 81.2669 26.2403 81.5537 27.009 78.9873C27.5214 77.2663 26.9939 76.2473 25.3511 75.6208L25.8409 73.9828C28.7422 74.9641 29.0888 77.3418 28.4634 79.4477C27.5063 82.6105 24.8914 83.4785 21.1914 82.3765Z" fill="white"></path><path d="M33.3613 59.4747L34.3409 58.0707C35.5165 58.7878 36.6544 58.4783 37.6566 57.0366C38.576 55.7157 38.6589 54.4928 37.6717 53.7984C36.9106 53.27 36.2173 53.5267 35.2829 54.1909L33.0749 55.7685C31.839 56.6592 30.4072 57.1272 28.9905 56.1308C27.2573 54.9231 27.3929 52.7718 28.7343 50.847C30.1133 48.8694 32.0199 48.1674 34.0395 49.5487L33.0749 50.9376C31.6431 50.0394 30.6333 50.7791 29.9626 51.7528C29.0809 53.0209 29.1789 54.0928 29.9777 54.6514C30.6333 55.1118 31.3643 54.9533 32.2007 54.3494L34.4087 52.7718C36.0591 51.5792 37.2422 51.3226 38.576 52.2586C40.5654 53.6474 40.3092 55.8666 38.9 57.8971C37.3401 60.1163 35.313 60.841 33.3613 59.4747Z" fill="white"></path><path d="M35.2148 42.8609L36.4281 41.6003L40.0905 45.1329L42.8712 42.2419L39.2088 38.7093L40.4221 37.4487L48.9902 45.7217L47.777 46.9822L43.9337 43.276L41.153 46.167L44.9963 49.8732L43.783 51.1338L35.2148 42.8609Z" fill="white"></path><path d="M48.1769 38.4832C45.8483 35.3959 45.6298 32.5729 48.192 30.6405C50.739 28.7157 53.2937 29.697 55.5845 32.7314C57.9131 35.8187 58.1166 38.6266 55.5619 40.559C53.0148 42.4763 50.4527 41.5025 48.1769 38.4832ZM54.1753 33.8712C52.9696 32.271 51.1686 30.2933 49.0736 31.8709C46.9862 33.4485 48.3803 35.7281 49.5936 37.3283C50.7843 38.9135 52.5928 40.8911 54.6802 39.306C56.7677 37.7435 55.366 35.4639 54.1753 33.8712Z" fill="white"></path><path d="M56.8057 25.0696L59.8803 23.4316C62.4876 22.0427 64.8086 22.1786 65.9993 24.4356C67.1975 26.6925 66.0294 28.6777 63.3995 30.0741L61.8697 30.8894L63.927 34.7767L62.3821 35.5995L56.8057 25.0696ZM61.1689 29.5684L62.7137 28.7456C64.6881 27.6964 65.0272 26.4887 64.3942 25.2885C63.7687 24.111 62.5705 23.6958 60.5961 24.745L59.0513 25.5678L61.1689 29.5684Z" fill="white"></path><path d="M88.5987 26.2474C84.3787 26.972 82.1029 24.4207 81.5528 21.19C81.0027 17.9594 82.3063 14.8042 86.5264 14.0795C90.7464 13.3549 93.0222 15.9062 93.5723 19.1369C94.1224 22.3676 92.8187 25.5303 88.5987 26.2474Z" fill="white"></path></svg> 