<svg xmlns="http://www.w3.org/2000/svg" width="274.534" height="21"><path data-name="LOGO" d="M4.903 19.723a11.257 11.257 0 01-4.251-2.438l1.513-2.293a15.1 15.1 0 004.056 2.081 14.008 14.008 0 004.333.659 9.009 9.009 0 004.515-.91 2.765 2.765 0 001.535-2.463 2.236 2.236 0 00-.516-1.581 3.244 3.244 0 00-1.5-.844 12.272 12.272 0 00-2.419-.409q-1.433-.117-3.267-.25a31.128 31.128 0 01-3.356-.436 7.7 7.7 0 01-2.395-.829 3.653 3.653 0 01-1.445-1.45 4.756 4.756 0 01-.48-2.265 4.953 4.953 0 012.155-4.243A10.514 10.514 0 019.59.498a14.194 14.194 0 018.984 2.818L16.9 5.451a15.641 15.641 0 00-3.7-1.633 13.833 13.833 0 00-3.817-.528 8.655 8.655 0 00-3.917.7 2.1 2.1 0 00-1.332 1.884 1.947 1.947 0 001.445 1.844 6.073 6.073 0 001.525.409q.834.117 1.832.184t2.144.145q1.144.079 2.406.264a8.925 8.925 0 014.606 1.739 4.62 4.62 0 011.491 3.688 5.443 5.443 0 01-2.3 4.691q-2.3 1.66-6.749 1.66a18.581 18.581 0 01-5.631-.775zm265.563.329l-4.492-7.272h-8.388v7.272h-2.75V.974h13.086a5.3 5.3 0 014.112 1.607 6.248 6.248 0 011.479 4.4 7.148 7.148 0 01-.32 2.238 5 5 0 01-.906 1.673 4.59 4.59 0 01-1.375 1.121 6.2 6.2 0 01-1.707.606l4.446 7.431zm-12.879-10.12h9.924a3.359 3.359 0 002.37-.757 2.849 2.849 0 00.814-2.193q0-3.161-3.436-3.163h-9.673zm-25.218 10.12V.974h16.729V3.82h-13.979v4.928h9.716v2.846h-9.716v5.612h14.621v2.846zm-23.369 0V.974h13.153a6.036 6.036 0 012.293.421 4.777 4.777 0 011.741 1.2 5.429 5.429 0 011.1 1.885 7.364 7.364 0 01.39 2.451 5.809 5.809 0 01-1.536 4.347 6.2 6.2 0 01-4.514 1.5h-9.878v7.272zm2.75-10.12h9.923a3.357 3.357 0 002.384-.757 2.877 2.877 0 00.8-2.193q0-3.161-3.368-3.163h-9.74zm-10.352 10.12l-1.925-4.269h-11.162l-1.924 4.269h-3L192.164.974h3.459l8.777 19.078zm-11.733-7.115h8.457l-4.218-9.223zm-25.942 7.115V.974h13.156a6.023 6.023 0 012.291.421 4.783 4.783 0 011.742 1.2 5.437 5.437 0 011.1 1.885 7.364 7.364 0 01.389 2.451 5.816 5.816 0 01-1.534 4.347 6.2 6.2 0 01-4.515 1.5h-9.877v7.272zm2.752-10.12h9.922a3.356 3.356 0 002.384-.757 2.875 2.875 0 00.8-2.193q0-3.161-3.368-3.163h-9.739zm-18.449 10.12l-1.926-4.269h-11.16l-1.925 4.269h-3L138.792.974h3.46l8.778 19.078zm-11.732-7.115h8.455l-4.216-9.223zm-13.641 7.115v-8.458H109.36v8.458h-2.749V1h2.749v7.748h13.293V1h2.75v19.052zm-29.667 0L88.838 4.11 84.69 20.052h-3.504L75.709.974h3.07l4.17 15.97L87.097.974h3.483l4.148 15.97L98.899.974h3.071l-5.432 19.078zm-24.673 0v-15.6h-.069L59.627 16.89 51.08 4.452h-.07v15.6h-2.75V.974h3.416l7.975 11.542 8-11.542h3.415v19.078zm-27.654 0l-1.925-4.269H27.573l-1.925 4.269h-3L31.425.974h3.46l8.778 19.078zm-11.733-7.115h8.455l-4.216-9.223z" fill="#fff" stroke="rgba(0,0,0,0)" stroke-miterlimit="10"/></svg>